<?xml version="1.0" encoding="utf-8"?>
<!-- Generator: Adobe Illustrator 28.2.0, SVG Export Plug-In . SVG Version: 6.00 Build 0)  -->
<svg version="1.1" id="Layer_1" xmlns="http://www.w3.org/2000/svg" xmlns:xlink="http://www.w3.org/1999/xlink" x="0px" y="0px"
	 viewBox="0 0 512 512" style="enable-background:new 0 0 512 512;" xml:space="preserve">
<style type="text/css">
	.st0{fill:#24265D;}
</style>
<g>
	<g>
		<path class="st0" d="M242.6,472H60.7c-8.5,0-13.7-4.8-16-7.6c-4-4.9-5.5-11.3-4.2-17.5c20.8-99.8,108.8-172.6,210.4-175
			c1.7,0.1,3.4,0.1,5.1,0.1c75,0,136-61,136-136S331,0,256,0c-75,0-136,61-136,136c0,44.5,21.5,84.1,54.6,108.9
			c-30.4,10-58.9,25.5-83.8,46.1c-45.7,37.6-77.5,90.1-89.5,147.7c-3.8,18.1,0.7,36.6,12.4,50.9c11.6,14.2,28.7,22.4,47,22.4h181.9
			c11,0,20-9,20-20S253.6,472,242.6,472L242.6,472z M160,136c0-52.9,43.1-96,96-96c52.9,0,96,43.1,96,96c0,52.2-41.8,94.8-93.7,96
			c-0.7-0.1-1.5-0.1-2.3-0.1c-1.6,0-3.1,0-4.7,0.1C200.6,229.4,160,187.4,160,136L160,136z M440,391c0,11-9,20-20,20h-29
			c-11,0-20-9-20-20v-41c0-11,9-20,20-20c11,0,20,9,20,20v21h9C431,371,440,380,440,391L440,391z M391,270c-66.7,0-121,54.3-121,121
			s54.3,121,121,121c66.7,0,121-54.3,121-121S457.7,270,391,270L391,270z M391,472c-44.7,0-81-36.3-81-81s36.3-81,81-81
			s81,36.3,81,81S435.7,472,391,472L391,472z M391,472"/>
	</g>
</g>
</svg>
