<?xml version="1.0" encoding="iso-8859-1"?>
<!-- Generator: Adobe Illustrator 28.2.0, SVG Export Plug-In . SVG Version: 6.00 Build 0)  -->
<svg version="1.1" id="Layer_1" xmlns="http://www.w3.org/2000/svg" xmlns:xlink="http://www.w3.org/1999/xlink" x="0px" y="0px"
	 viewBox="0 0 512 512" style="enable-background:new 0 0 512 512;" xml:space="preserve">
<g>
	<path style="fill:#24265D;" d="M463.109,61.781h-65.312V48.891c0-7.121-5.769-12.891-12.891-12.891h-77.344
		c-7.121,0-12.891,5.769-12.891,12.891v12.891h-77.344V48.891c0-7.121-5.769-12.891-12.891-12.891h-77.344
		c-7.121,0-12.891,5.769-12.891,12.891v12.891H48.891C41.769,61.781,36,67.551,36,74.672v388.438C36,470.231,41.769,476,48.891,476
		h414.219c7.121,0,12.891-5.769,12.891-12.891V74.672C476,67.551,470.231,61.781,463.109,61.781L463.109,61.781z M320.453,61.781
		h51.562v25.781h-51.562V61.781z M139.984,61.781h51.563v25.781h-51.563V61.781z M450.219,450.219H61.781V87.562h52.422v12.891
		c0,7.121,5.769,12.891,12.891,12.891h77.344c7.121,0,12.891-5.769,12.891-12.891V87.562h77.344v12.891
		c0,7.121,5.769,12.891,12.891,12.891h77.344c7.121,0,12.891-5.769,12.891-12.891V87.562h52.422V450.219z M450.219,450.219"/>
	<path style="fill:#24265D;" d="M101.312,139.984c-7.121,0-12.891,5.769-12.891,12.891v257.812c0,7.121,5.769,12.891,12.891,12.891
		h206.25c63.97,0,116.016-52.046,116.016-116.016V152.875c0-7.121-5.769-12.891-12.891-12.891H101.312z M114.203,165.766h283.594
		v116.016c0,21.323-17.349,38.672-38.672,38.672h-25.781c-7.121,0-12.891,5.769-12.891,12.891v25.781
		c0,21.323-17.349,38.672-38.672,38.672H114.203V165.766z M336.575,393.012c6.114-9.851,9.659-21.461,9.659-33.887v-12.891h12.891
		c12.425,0,24.036-3.545,33.887-9.659C384.002,363.032,363.032,384.002,336.575,393.012L336.575,393.012z M336.575,393.012"/>
	<path style="fill:#24265D;" d="M191.547,217.328h-25.781c-7.121,0-12.891,5.769-12.891,12.891s5.769,12.891,12.891,12.891h25.781
		c7.121,0,12.891-5.769,12.891-12.891S198.668,217.328,191.547,217.328L191.547,217.328z M191.547,217.328"/>
	<path style="fill:#24265D;" d="M243.109,243.109h25.781c7.121,0,12.891-5.769,12.891-12.891s-5.769-12.891-12.891-12.891h-25.781
		c-7.121,0-12.891,5.769-12.891,12.891S235.988,243.109,243.109,243.109L243.109,243.109z M243.109,243.109"/>
	<path style="fill:#24265D;" d="M320.453,243.109h25.781c7.121,0,12.891-5.769,12.891-12.891s-5.769-12.891-12.891-12.891h-25.781
		c-7.121,0-12.891,5.769-12.891,12.891S313.332,243.109,320.453,243.109L320.453,243.109z M320.453,243.109"/>
	<path style="fill:#24265D;" d="M320.453,294.672h25.781c7.121,0,12.891-5.769,12.891-12.891c0-7.121-5.769-12.891-12.891-12.891
		h-25.781c-7.121,0-12.891,5.769-12.891,12.891C307.562,288.903,313.332,294.672,320.453,294.672L320.453,294.672z M320.453,294.672
		"/>
	<path style="fill:#24265D;" d="M243.109,294.672h25.781c7.121,0,12.891-5.769,12.891-12.891c0-7.121-5.769-12.891-12.891-12.891
		h-25.781c-7.121,0-12.891,5.769-12.891,12.891C230.219,288.903,235.988,294.672,243.109,294.672L243.109,294.672z M243.109,294.672
		"/>
	<path style="fill:#24265D;" d="M191.547,268.891h-25.781c-7.121,0-12.891,5.769-12.891,12.891c0,7.121,5.769,12.891,12.891,12.891
		h25.781c7.121,0,12.891-5.769,12.891-12.891C204.438,274.66,198.668,268.891,191.547,268.891L191.547,268.891z M191.547,268.891"/>
	<path style="fill:#24265D;" d="M191.547,320.453h-25.781c-7.121,0-12.891,5.769-12.891,12.891s5.769,12.891,12.891,12.891h25.781
		c7.121,0,12.891-5.769,12.891-12.891S198.668,320.453,191.547,320.453L191.547,320.453z M191.547,320.453"/>
	<path style="fill:#24265D;" d="M268.891,320.453h-25.781c-7.121,0-12.891,5.769-12.891,12.891s5.769,12.891,12.891,12.891h25.781
		c7.121,0,12.891-5.769,12.891-12.891S276.012,320.453,268.891,320.453L268.891,320.453z M268.891,320.453"/>
</g>
</svg>
