<?xml version="1.0" encoding="utf-8"?>
<!-- Generator: Adobe Illustrator 28.2.0, SVG Export Plug-In . SVG Version: 6.00 Build 0)  -->
<svg version="1.1" id="Capa_1" xmlns="http://www.w3.org/2000/svg" xmlns:xlink="http://www.w3.org/1999/xlink" x="0px" y="0px"
	 viewBox="-49 141 512 512" style="enable-background:new -49 141 512 512;" xml:space="preserve">
<style type="text/css">
	.st0{fill:#111E60;}
</style>
<path class="st0" d="M394.2,348.5h-38.1v-20.3c0-82.2-66.9-149.1-149.1-149.1S57.9,246,57.9,328.2v20.3H19.8v-20.3
	C19.8,225,103.8,141,207,141c103.2,0,187.2,84,187.2,187.2V348.5z"/>
<path class="st0" d="M65.5,535.6H18.6c-32.9,0-59.6-26.8-59.6-59.6v-86.9c0-32.9,26.8-59.6,59.6-59.6h46.9c10.5,0,19,8.5,19,19
	v168.1C84.6,527.1,76,535.6,65.5,535.6z M18.6,367.5C6.5,367.5-3,377-3,389.1V476c0,12.1,9.5,21.6,21.6,21.6h27.9V367.5H18.6z"/>
<path class="st0" d="M395.4,535.6h-46.9c-10.5,0-19-8.5-19-19V348.5c0-10.5,8.5-19,19-19h46.9c32.9,0,59.6,26.8,59.6,59.6V476
	C455.1,508.9,428.3,535.6,395.4,535.6z M367.5,497.6h27.9c12.1,0,21.6-9.5,21.6-21.6v-86.9c0-12.1-9.5-21.6-21.6-21.6h-27.9V497.6z"
	/>
<path class="st0" d="M321.2,602.9h-50.8v-38.1h50.8c26.6,0,48.2-21.6,48.2-48.2h38.1C407.5,564.2,368.8,602.9,321.2,602.9z"/>
<path class="st0" d="M220.3,653c-38.5,0-69.8-31-69.8-69.2s31-69.1,69.1-69.1c38,0,68.9,30.8,69.2,68.7c0.7,18.1-5.8,35.2-18.3,48.3
	C257.6,645.3,239.3,653,220.3,653z M219.7,552.8c-17.1,0-31.1,13.9-31.1,31.1c0,16.9,14.5,31.1,31.7,31.1c8.7,0,16.9-3.5,22.7-9.5
	c5.4-5.6,8.1-13,7.8-20.7c0-0.3,0-0.6,0-0.9C250.8,566.7,236.8,552.8,219.7,552.8z"/>
</svg>
