<?xml version="1.0" encoding="iso-8859-1"?>
<!-- Generator: Adobe Illustrator 28.2.0, SVG Export Plug-In . SVG Version: 6.00 Build 0)  -->
<svg version="1.1" id="Isolation_Mode" xmlns="http://www.w3.org/2000/svg" xmlns:xlink="http://www.w3.org/1999/xlink" x="0px"
	 y="0px" viewBox="0 0 26.275 19.004" style="enable-background:new 0 0 26.275 19.004;" xml:space="preserve">
<path style="fill:#24285D;" d="M23.061,0H3.215C1.442,0,0,1.442,0,3.214V15.79c0,1.772,1.442,3.214,3.215,3.214h19.846
	c1.772,0,3.214-1.442,3.214-3.214V3.214C26.275,1.442,24.833,0,23.061,0z M2,15.79V3.287l6.395,5.708l-6.342,7.054
	C2.033,15.963,2,15.882,2,15.79z M14.122,9.647c-0.601,0.543-1.379,0.547-1.982,0.009L3.562,2h19L14.122,9.647z M9.887,10.327
	l0.921,0.822c0.684,0.61,1.501,0.915,2.318,0.915c0.826,0,1.652-0.312,2.339-0.935l1.123-1.017l6.197,6.892h-18.9L9.887,10.327z
	 M18.069,8.769l6.195-5.613c0.001,0.02,0.012,0.037,0.012,0.057v12.458L18.069,8.769z"/>
</svg>
