<?xml version="1.0" encoding="utf-8"?>
<!-- Generator: Adobe Illustrator 28.2.0, SVG Export Plug-In . SVG Version: 6.00 Build 0)  -->
<svg version="1.1" id="Layer_1" xmlns="http://www.w3.org/2000/svg" xmlns:xlink="http://www.w3.org/1999/xlink" x="0px" y="0px"
	 viewBox="0 0 1275 1650" style="enable-background:new 0 0 1275 1650;" xml:space="preserve">
<style type="text/css">
	.st0{fill:#FFFFFF;}
	.st1{fill:#F1F2F6;}
</style>
<rect class="st0" width="1275" height="1650"/>
<g>
	<polygon class="st1" points="1172.3,390.4 1201.1,375.3 1229.9,390.4 1224.4,358.3 1247.6,335.7 1215.5,331 1201.1,301.8 
		1186.7,331 1154.5,335.7 1177.8,358.3 	"/>
	<polygon class="st1" points="1215.4,1288.8 1201,1259.6 1186.6,1288.8 1154.4,1293.4 1177.7,1316.1 1172.2,1348.2 1201,1333 
		1229.8,1348.2 1224.3,1316.1 1247.6,1293.4 	"/>
	<polygon class="st1" points="1007.4,1242.8 993,1213.6 978.7,1242.8 946.5,1247.4 969.8,1270.1 964.3,1302.2 993,1287 
		1021.8,1302.2 1016.3,1270.1 1039.6,1247.4 	"/>
	<polygon class="st1" points="846,1111.5 831.6,1082.3 817.2,1111.5 785,1116.2 808.3,1138.8 802.8,1170.9 831.6,1155.8 
		860.4,1170.9 854.9,1138.8 878.2,1116.2 	"/>
	<polygon class="st1" points="749.8,923.8 735.4,894.7 721,923.8 688.9,928.5 712.1,951.2 706.6,983.2 735.4,968.1 764.2,983.2 
		758.7,951.2 782,928.5 	"/>
	<polygon class="st1" points="735.4,675.1 721,704.2 688.9,708.9 712.1,731.6 706.6,763.6 735.4,748.5 764.2,763.6 758.7,731.6 
		782,708.9 749.8,704.2 	"/>
	<polygon class="st1" points="797.9,575.9 826.7,560.8 855.5,575.9 850,543.9 873.3,521.2 841.1,516.5 826.7,487.4 812.3,516.5 
		780.1,521.2 803.4,543.9 	"/>
	<polygon class="st1" points="964,444.5 992.8,429.4 1021.6,444.5 1016.1,412.5 1039.4,389.8 1007.2,385.1 992.8,356 978.4,385.1 
		946.2,389.8 969.5,412.5 	"/>
	<path class="st1" d="M1272.5,1122.7c-1.4-1.5-3.8-3.9-6.8-6.6v6.1C1269.3,1122.4,1272.5,1122.7,1272.5,1122.7z"/>
	<path class="st1" d="M1255.3,1022.1c-6.4,4.2-7.3,14.6-10.3,19.4c-2,3.4-3.1,5.9-3.8,8.1c-0.6-4.9-2.4-7.1-4.3-8.1c0,0,0,0,0,0
		c-0.1,0-0.2-0.1-0.3-0.1c-0.1,0-0.2-0.1-0.3-0.1c-0.4-0.2-0.8-0.3-1.2-0.3c-1.4-0.3-3.6-0.7-7.2-1c-4.9-0.5-12.7,0-16.3,6.8
		c-3.5,6.3-6.6,21.8-7.9,25.5c-0.9-0.4-1.8-0.6-2.8-0.6c-1,0-1.9,0.2-2.8,0.6c-1.4-3.7-4.5-19.2-7.9-25.5
		c-3.7-6.8-11.5-7.3-16.3-6.8c-3.6,0.4-5.8,0.7-7.2,1c-0.4,0.1-0.8,0.2-1.2,0.3c-0.1,0-0.2,0.1-0.3,0.1c-0.1,0-0.2,0.1-0.3,0.1
		c0,0,0,0,0,0c-2.2,1.1-4.4,4.1-4.5,11.2c-0.4-2.8-1.5-6.1-4.5-11.3c-2.9-4.9-3.8-15.3-10.3-19.4c-5.4-3.3-9-8.3-15.3-10.9
		c-7.3-3.1-16.3-6.1-16.5-4.3c-0.2,1.5,1.7,8.7,3.5,15.2c-1.5-0.6-3.4-1.3-5.8-2.2c0,0-21.7-5.7-19.5-1.4c2.9,5.3,7,11.5,10,16.1
		c-5.1-0.5-13.9,0.5-10.2,1.1c1.4,2.9,0.9,6.8,12,18.6c0.5,0.6,1.1,1,1.6,1.5c-2.9-1.2-5.6-2.4-7.9-3.6c-7.8-4-16.3-8.8-24.3-13.8
		c0.5-2.4,4.5-23,0.9-27.9c-1.9-2.4-4.3-5.9-4.9-11.5c-0.5-5.4-4.2-14.4-6.6-17.4c-2.4-3.1-7.3-17-6.1-20.5c0,0-12.7,12.5-12,20.5
		c0.4,6.4,0.5,6.3,0.2,8c-1.1-2.1-2.1-3.8-2.7-4.6c-1.9-2.3-3.1-7.1-4.3-11.5c-1.2-4.2-4.7-15.6-4.7-15.6c-4.3,1.9-8.5,12-10.3,16.3
		c-1.9,4.2-3.1,11.5-3.6,14.4c-0.7,3,1.9,8.7,2.4,11.5c0.1,0.4,0.3,1.1,0.7,1.8c-9-6.8-16.5-13.4-23.8-24.3c0.6-2.9,1.3-5.2,2.6-6.3
		c1.7-1.9,7.8-9.2,9-13.9c1.2-4.9,0-8.5,0-10.9s1.7-10.8,1.7-10.8s-0.1-0.3-0.2-0.7h10.1c18,13.3,82.8,54.2,159.1,20.9
		c-0.4,1.3-0.8,2.2-1.2,2.7c0,0-16.4,22.2,20.6,29.7l0,0c0,0,0,0,0,0c0,0,0,0,0,0l0,0c37-7.5,20.6-29.7,20.6-29.7
		c-0.4-0.5-0.8-1.5-1.2-2.7c15.9,7,31.3,10.7,45.9,12.1v-16c-14.6-0.1-25.7-3.1-28.7-4c8.1-2.2,17.5-6.1,26.8-13h2v-10.9h-247.1
		l25-41.9c74,0,148,0,222,0v-5.8c-1.2,0-2.3,0-3.5,0c0,0-0.1,0-0.1,0c-0.3,0-0.5-0.1-0.7-0.2c-1.2-1-2.5-2-3.7-3
		c-4-3.3-7.8-6.8-11.5-10.4c-2-1.9-4-3.9-6-5.9c-5.3-5.3-10.5-10.8-15.5-16.3c-1.2-1.3-2.3-2.6-3.5-3.8c-3-3.1-6.2-6-9.8-8.4
		c-1.7-1.2-3.4-2.2-5.2-3.2c-0.1,0-0.2-0.1-0.3-0.2c0-0.1,0.1-0.1,0.1-0.1c1.5-1,3.2-1.7,4.9-2.1c0.9-0.2,1.8-0.3,2.7-0.2
		c1.1,0.1,2.1,0.4,3.1,1c0.7,0.4,1.4,0.9,2,1.4c3.6,3,7.5,5.6,11.8,7.6c0.6,0.3,1.2,0.5,1.8,0.8c1.1,0.4,2.1,0.9,3.1,1.5
		c2.2,1.3,4.3,2.8,6.3,4.4c2.5,2.1,4.8,4.4,7,6.8c2.6,3,5.4,5.9,8.1,8.8c2.5,2.6,5,5.2,7.6,7.8c0.4,0.4,0.9,0.9,1.3,1.3v-8.3
		c-4-4.1-7.9-8.2-11.7-12.4c-1-1.1-2-2.3-3.1-3.4c-1.7-1.8-3.5-3.5-5.4-5.1c-0.1-0.1-0.2-0.2-0.3-0.2c0,0,0-0.1-0.1-0.1
		c0,0,0.1-0.1,0.1-0.1c1.2-0.9,2.5-1.7,4-2.3c0.9-0.4,1.9-0.6,2.9-0.7c1.1-0.1,2.1,0.2,3,0.7c0.6,0.3,1.2,0.7,1.7,1.2
		c2.7,2.3,5.7,4.3,8.9,5.9v-6.7c-1.8-1.1-3.5-2.3-5.1-3.7c-0.9-0.7-1.8-1.4-2.8-1.9c-1.7-0.9-3.5-1.3-5.4-1.3
		c-1.3,0-2.6,0.2-3.8,0.6c-1.8,0.5-3.4,1.3-5,2.3c-1.1,0.7-2.1,1.4-3,2.1c-0.1,0.1-0.2,0.2-0.4,0.2c-0.1,0-0.1-0.1-0.2-0.1
		c-1.8-1.2-3.7-2.2-5.8-2.9c-1.8-0.7-3.5-1.6-5.2-2.7c-2.4-1.4-4.6-3-6.7-4.8c-0.8-0.6-1.6-1.2-2.4-1.7c-1.8-1-3.7-1.7-5.7-1.8
		c-1.4-0.1-2.8,0-4.1,0.3c-1.8,0.4-3.6,1.1-5.3,1.9c-0.9,0.5-1.7,1.1-2.6,1.7v-56.9c6-0.4,10.6-2.5,10.6-5c0-2.5-4.3-19.6-10.1-23.8
		c-0.3-0.2-5.3-4.1-11.9-0.3c0,0-7.5,4.3-3.6,10.4c0,0,0.8,1.8,4.1,0.5c0.6-0.2,2.2-1,2.7-3.3l-0.1,1.5c0,2.1-2.9,3.3-3.1,3.3
		c-1.9,5.3-3,10.4-3,11.6c0,2.5,4.7,4.6,10.7,5v57.7c-0.2-0.1-0.4-0.2-0.5-0.3c-2.5-1.5-4.9-3.2-7.1-5.1c-0.8-0.7-1.7-1.3-2.6-1.8
		c-1.8-1-3.7-1.7-5.8-1.9c-1.6-0.2-3.2-0.1-4.8,0.3c-1.9,0.4-3.8,1.1-5.5,2c-1.8,1-3.5,2.1-5.2,3.3c-0.1,0.1-0.2,0.2-0.4,0.3
		c-0.1-0.1-0.3-0.2-0.4-0.2c-0.7-0.4-1.5-0.9-2.2-1.3c-1.1-0.6-2.1-1.1-3.3-1.5c-1.5-0.6-2.9-1.2-4.3-1.9c-4-2.1-7.8-4.7-11.3-7.6
		c-0.3-0.3-0.7-0.5-1-0.8c-2.7-2.1-5.8-3.4-9.3-3.7c-0.1,0-0.2-0.1-0.3-0.1c-0.6,0-1.3,0-1.9,0c-0.1,0-0.3,0.1-0.4,0.1
		c-2.2,0.2-4.3,0.7-6.4,1.6c-2.4,1-4.5,2.2-6.6,3.7c-2.4,1.6-4.6,3.5-6.6,5.5c-2.7,2.6-5.2,5.3-7.5,8.2c-2.3,2.8-4.4,5.7-6.3,8.8
		c-0.1,0.2-0.2,0.3-0.3,0.4c-1.4,1.7-2.9,3.4-4.5,5c-1,1-2,1.8-3,2.8h-20.1l98-163.8c20-8.8,43.2-8.9,63.3-0.3l33.8,56.4v-21.9
		l-50.9-85.1c3.4-22.4-8.6-56.4-9.1-57.8c0.7-3,1.1-6.1,1-9.2c3.8-1.3,5-4.2,5.2-5.2c0-0.1,0-0.1,0-0.1c0,0,0.1-0.1,0-0.1
		c0,0,0-0.1,0-0.1s-3.9-4.9-6.4-7.1c1.3,0.3,2.4,0.4,3,0.4c0.2,0,0.4,0,0.4,0c2.6,0,4.7-1.8,4.7-4.1c0-2.2-2.1-4-4.6-4c0,0,0,0,0,0
		c-0.1,0-2.3-0.2-4.7,0.6l4.5-5.5l-8.5-15.4v0l0,0l-8.5,15.4l4.6,5.5c-2.3-0.8-4.5-0.6-4.6-0.6c-1.4,0-2.6,0.5-3.5,1.4
		c-0.7,0.7-1.1,1.7-1.1,2.6c0,1,0.4,1.9,1.1,2.7c0.9,0.9,2.2,1.4,3.5,1.4c0,0,0.1,0,0.4,0c0.5,0,1.4-0.1,2.4-0.3
		c-1.4,1.3-3.2,3.4-4.5,4.8c-0.5,0.5-0.9,0.9-1.2,1.4c-0.2,0.2-0.3,0.4-0.3,0.4s0.1,0.2,0.2,0.6c0,0.1,0,0.3,0,0.4
		c0.8,1.5,1.6,2.4,2.5,3.1c-6.3,11.8-22,45.9-12.9,81.4l-47.8,79.9l-83.6-92.1c3.6-0.4,6.5-3.2,6.6-3.3c1-0.9,1.6-2.2,1.7-3.4
		c0-1-0.3-2-0.9-2.7c-0.7-0.7-1.6-1.1-2.6-1.2c-1.2,0-2.5,0.4-3.5,1.3c-0.1,0.1-1.9,1.4-3.1,3.6l-0.4-7.1l-16.7-5.7l0,0l0,0
		l4.1,17.1l7.1,1c-2.2,1-3.7,2.6-3.8,2.7c-1,0.9-1.6,2.2-1.7,3.4c0,1,0.3,2,0.9,2.7c0.7,0.7,1.6,1.1,2.6,1.2c0.1,0,0.1,0,0.2,0
		c0.7,0,1.3-0.2,1.9-0.5l-2.3,5.9c0,0-1.6,2.7,4.4,5c-1.7,12.3-8.8,69-4.9,128l-49.7-34.9c3.4-1.2,5.6-4.6,5.7-4.7
		c0.7-1,1-2.2,0.9-3.3c-0.1-1-0.5-1.7-1.1-2.4c2.6-3.1,4.3-9.2,5.3-15.2c0,0-10.3,2.4-13.2,3l0,0c0,0,0,0,0,0
		c0.4-2.1-0.7-7.4-1.4-10.4c2.2-3.9,4.4-7.8,6.7-11.7c1.2,0.3,3.2-0.3,5.3-1.3c5.4,0,12.9-0.6,15.3-3c2.4-2.4,6.6-5.6,9-6.8
		c2.4-1,6.6-6.6,7.3-9c0.5-2.4,4.9-7.1,6.6-7.1c0,0-6.6-0.7-13.9,1.2c-0.5,0.1-1.1,0.3-1.7,0.4c3.6-6.6,2.8-18.5,1.2-17.5
		c-0.9,0.6-2.8,1.6-4.7,2.7c2.3-3.7,3.9-6.2,4.5-7c0.6,0.4,1.3,0.7,2.2,0.7c2.3,0,4-1.7,4-4c0-2.3-1.7-4-4-4c-2.3,0-4,1.7-4,4
		c0,1.4,0.7,2.6,1.8,3.3c-1.9,2.4-3.9,5.1-6,7.9c-1.7,0.9-3.2,1.7-3.9,2c-0.8,0.2-2,0.6-3.1,1.2c-1.1-4.4-2.3-9.7-2.3-9.7
		s-4.3,4.2-7.3,7.3c-3.1,2.9-3.6,5.4-4.9,9c-1.2,3.6-3.6,6.1-4.9,9c-1.2,2.9,0,9,0.7,12.7c0.4,2.7,0.6,5.1,0.8,6.3
		c-2.4,4-4.7,8-7,11.9c-3.8,1.9-10.8,7.2-15.3,11.7c-1.7-4-6.2-14.3-6.2-14.3c0.7,3.6-8.5,16.3-9,19.3c-0.7,3.1-1.7,6.6-1.7,11.5
		c0,4.9,0.5,9,4.2,12.2c2.5,2,3.5,8.2,4.4,11c-2,8.8-3.8,18.6-5.2,29.3c-0.2-1-0.4-2.2-1-4c-1.4-5-5.2-6.6-5.6-9.2
		c-0.5-2.4-3.7-2.9-6.8-9.2c-1.9-3.3-5.4-8.7-5.4-8.7s-4,8.5-6.6,14.9c-0.6,1.7-0.9,3.5-0.9,5.2c-0.8-0.6-1.5-1.3-2.1-2.1
		c-1.9-2.9-7.6-5.9-7.6-5.9c-1.2,2.1-1.7,15.1-2.1,18.6c-0.5,3.5,1.9,11.3,3,13.5c1.2,2.1,2.6,5.6,5.2,10.4
		c2.6,5,21.2,11.4,22.8,13.9c0,0,2.4,2.6,4.2,4c0,1.7-0.1,3.3-0.1,5c0,9.7,1.7,21,4,32c-0.6-0.9-1.2-1.7-1.5-2.5
		c-1.2-2.4-1.2-1.9-3-9c-1.9-7.3-6.8-7.3-8-9.7c-1.2-2.4-7.8-4.9-11.5-6.6c-3.5-1.7-5.9-9-5.9-9s0,12-0.7,19.3
		c-0.2,3.1,0.4,5.7,1.4,7.7c-2.1-0.5-4.2-1.1-5.6-2.3c-2.9-2.4-9.7-3.6-9.7-3.6c-0.5,2.4,3.1,15.8,3.6,19.3
		c0.7,3.6,5.4,10.9,7.3,12.7c1.7,1.9,4.2,4.9,8.3,9c4.3,4.3,15.2,5.2,27.3,9.2c4.6,1.5,7.2,4.4,8.5,6.4c0.4,1.5,0.8,2.9,1.1,3.9
		c1.4,5.3,3.1,11.7,5.2,18.6c-3.4-4.5-9.2-5.6-16-6.6c-4.2-0.7-20.5-4.9-20.5-4.9c3.9,2.9,6.3,10.9,8.7,18.1c-9.4-1.9-19,0-19,0
		c1.7,1.2,14.4,12.2,16.2,18.2c1.9,5.9,8.5,16.8,10.3,18.1c1.9,1.2,7.3,7.8,10.9,11.5c3.6,3.6,18.1,1.7,22.9,1.7c3.1,0,8,2.5,11,3.5
		c3.1,4.2,8.4,9.7,15.3,16c-4-1.4-10.9-5.9-13.3-8.7c-2.4-3.2,0.3,10.7,3,15.2c-3.9-0.4-8.1-1.2-10.5-3c-4-3.1-0.5,10.9,3.8,14.9
		c9.4,8.3,8.5,9.6,10,10.2c-7.9,1.6-18.8,4.3-22.2,2.3c-4.3-2.4,4.9,6.1,10.4,8.2c8,3,7,8.2,15.6,10.9c9.2,3,18.9,6.6,24.3,5.6
		c4.2-0.9,7.3-2.8,13.2-3.3c5.3-0.6,14.2-7.7,24.4-8.9c9.8,6,19.7,11.6,29.5,16.2c0.4,0.2,1,0.5,1.6,0.7c-1,0.1-2.2,0.2-3.4,0.5
		c-3.6,0.9-18.6,4.2-22.2,2.4c-3.3-1.7,3.8,8,8.2,11.7c-7.1,1.3-17,2.4-20.4,1.5c-4.9-1,9.7,13,15.5,14.6c0.2,0.1,0.4,0.1,0.7,0.2
		c-4.7,1.5-8.9,2.7-11.1,2.5c-5-0.4,16,13.4,21.7,12.5c18.4-2.6,35.8,3.6,44.3,0.2c7.6-3,12.2-5,16-6.3c3.8-1.4,5.9-4.9,8.3-6.6
		c1.8-1.4,2.7-4.2,9-7.2c0.5,0.1,0.7,0.1,0.7,0.1s11.7,0.9,19.5,0.2c-2.2,0.9-4.9,2.3-7.9,4.8c-9.5,3-17.2,5.6-19.6,6.8
		c-7.3,3.6-25.9,20-30.8,25.3c0,0,15.6-1.2,18.1-1.2c2.4,0,7.8-10.8,10.2-12.7c0.7-0.5,4.7-2.5,10.5-5.3
		c-10.7,17.2,4.9,31.2,4.9,31.2c-4.2-4.9,0.5-13.4,0.5-13.4l8.5,5.4c-10.7-18.3,5.8-30.5,11.3-33.9c0.6-0.2,1.1-0.4,1.7-0.6
		c1.7,2.2,4.1,3.7,6.7,3.7c2.5,0,4.8-1.3,6.5-3.4c1.1,0.4,2.2,0.8,3.3,1.3c6.4,4.3,19.9,16.1,10,33l8.5-5.4c0,0,4.7,8.5,0.5,13.4
		c0,0,15.2-13.7,5.3-30.6c5.1,2.4,8.6,4.2,9.2,4.7c2.4,1.9,7.8,12.7,10.2,12.7c1.3,0,6.7,0.4,11.3,0.7v-6.1
		c-7.6-6.9-18.7-16.1-23.9-18.7c-2.3-1.1-9.3-3.5-18.1-6.3c-3.3-2.7-6.1-4.3-8.5-5.2c7.8,0.7,19.4,0,19.4,0s0.2,0,0.3-0.1
		c5.7,2.9,6.8,5.6,8.6,7c2.4,1.7,4.5,5.2,8.3,6.6c3.5,1.1,7.5,2.9,13.9,5.4V1014C1262.1,1016.6,1259.1,1019.8,1255.3,1022.1z
		 M1194,969.1c0,0,4-20.8,6.3-33.9h0c2.3,13.1,6.3,33.9,6.3,33.9c2.4,10.1-6.2,19.3-6.3,19.4C1200.2,988.4,1191.6,979.2,1194,969.1z
		 M1137,935.1c9.3,6.9,18.7,10.8,26.8,13c-6.4,1.9-48.3,13-84-13H1137z M1208.2,537c0.5,0,0.7,0,0.7,0c1.5,0,2.8,1,2.8,2.1
		c0,1.2-1.2,2.1-2.8,2.2c0,0-4.4,0.2-6.7-2.2C1204,537.2,1206.9,537,1208.2,537z M1200.3,524.2L1200.3,524.2L1200.3,524.2l3.3,6
		l-3.3,4v0l0,0l-3.3-4L1200.3,524.2z M1191.8,541.3C1191.8,541.3,1191.8,541.3,1191.8,541.3c-0.9,0-1.7-0.3-2.2-0.8
		c-0.3-0.3-0.6-0.7-0.6-1.3c0-0.6,0.3-1,0.6-1.3c0.5-0.5,1.3-0.8,2.3-0.8c0.1,0,4.3-0.4,6.6,2.1
		C1196.3,541.5,1191.9,541.3,1191.8,541.3z M1198.9,581c0,0,4.6-7.3,6.7-16.2c3.1,19.6-0.8,34.3-2.2,38.8l-3.1-5.1l-10.1,16.9
		C1189.6,608.9,1189.8,595.5,1198.9,581z M1200.3,620.3l14.2,23.7c-9.4-1.3-19-1.2-28.4,0.1L1200.3,620.3z M1183.2,649
		c11.3-2,22.9-2,34.2-0.1l3.6,6.1c-13.6-3-27.9-3-41.5,0.2L1183.2,649z M1176.3,660.4c15.6-4.4,32.3-4.4,47.9-0.2l3.9,6.6
		c-8.8-3.1-18-4.6-27.5-4.6c-9.8,0-19.2,1.6-28.2,4.9L1176.3,660.4z M1083.5,667.2l25.6,28.2c-0.6,7.8-1.6,32,5.1,47.2l-23.3,38.9
		C1085.3,770.2,1073.8,736.9,1083.5,667.2z M1171.6,821.7c1.5-1.1,3.1-2,4.9-2.7c1-0.4,2-0.7,3-0.8c1.9-0.3,3.6,0.1,5.3,0.9
		c0.8,0.4,1.5,0.9,2.2,1.5c1.8,1.5,3.7,2.9,5.7,4.2c2.2,1.5,4.5,2.8,6.9,3.9c0.7,0.3,1.4,0.6,2.1,0.9c0.8,0.3,1.6,0.7,2.4,1.1
		c2.2,1.2,4.2,2.5,6.1,4.1c3.2,2.5,6.1,5.3,8.9,8.4c4.1,4.6,8.4,9.2,12.7,13.6c1.8,1.8,3.6,3.6,5.4,5.4c4.6,4.6,9.2,9,14.1,13.2
		c0.3,0.3,0.6,0.5,0.9,0.8c0.1,0.1,0.1,0.1,0.2,0.2c0,0,0,0.1,0,0.1c-0.1,0-0.3,0-0.4,0c-7.7,0-15.5,0-23.2,0c0,0-0.1,0-0.1,0
		c-0.3,0-0.5-0.1-0.7-0.2c-0.5-0.4-1.1-0.8-1.6-1.2c-3.3-2.6-6.5-5.3-9.6-8.1c-3.6-3.2-7.1-6.5-10.5-9.9c-7.5-7.4-14.8-15-21.9-22.8
		c-1.2-1.4-2.4-2.7-3.7-4.1c-2.7-2.9-5.7-5.6-8.8-8c-0.1-0.1-0.2-0.2-0.4-0.3C1171.5,821.8,1171.6,821.7,1171.6,821.7z M1095.3,841
		c2.7-2.5,5.2-5.2,7.5-8.1c0.1-0.2,0.3-0.4,0.4-0.6c1.9-3.1,4.1-6.1,6.4-9c1.9-2.3,3.8-4.5,5.9-6.6c2.2-2.2,4.5-4.2,7.1-5.9
		c1.7-1.1,3.4-2.1,5.3-2.8c1.3-0.5,2.6-0.8,3.9-1c2.4-0.3,4.6,0.1,6.7,1.3c0.9,0.5,1.8,1.1,2.5,1.7c1.9,1.6,3.8,3,5.8,4.4
		c2.3,1.6,4.8,3,7.3,4.3c1.3,0.7,2.7,1.3,4.1,1.8c0.9,0.3,1.8,0.8,2.7,1.3c2.3,1.3,4.5,2.7,6.6,4.4c2.4,1.8,4.7,3.9,6.9,6
		c1.6,1.6,3.2,3.3,4.7,5c1.7,1.9,3.4,3.8,5.2,5.7c3.1,3.4,6.3,6.7,9.5,9.9c5.7,5.9,11.5,11.6,17.6,17.1c2.3,2.1,4.7,4.2,7.1,6.2
		c0.1,0.1,0.2,0.2,0.4,0.4c-0.1,0-0.2,0-0.3,0c-55.3,0-110.7,0-166,0c-0.1-0.2,0.1-0.2,0.1-0.3c0.8-0.8,1.5-1.5,2.3-2.3
		c2.5-2.4,5-4.8,7.6-7.2c3.1-2.8,6.3-5.6,9.7-8.2c2-1.5,4.1-3,6.3-4.3c0.6-0.4,1.2-0.8,1.8-1.2
		C1085.7,849.4,1090.7,845.4,1095.3,841z M1087.5,840.1c-3.6,3.1-7.3,6.1-11.2,8.8c-0.4,0.2-0.7,0.5-1.1,0.7c-2.1,1.3-4.1,2.7-6,4.1
		c-3.2,2.4-6.2,5-9.2,7.6c-3,2.6-5.8,5.4-8.6,8.1l17.6-29.4H1087.5z M1049.5,614.9c0.6-0.6,1.4-0.9,2.2-0.8c0.4,0,0.9,0.1,1.3,0.6
		s0.5,1,0.5,1.4c0,0.7-0.4,1.5-1.1,2.1c0,0-2.9,2.9-6.1,2.9c-0.1,0-0.2,0-0.3,0C1046,617.6,1049.4,615,1049.5,614.9z M1036.2,617.9
		l-1.6-6.6l0,0l0,0l6.4,2.2l0.3,5.2l0,0l0,0L1036.2,617.9z M1039.8,629.6c-0.6,0.6-1.4,0.9-2.2,0.8c-0.4,0-0.9-0.1-1.3-0.6
		s-0.5-1-0.5-1.4c0-0.7,0.4-1.5,1.1-2.1c0,0,2.7-2.9,5.9-2.9c0.1,0,0.3,0,0.4,0C1043.2,626.8,1039.8,629.6,1039.8,629.6z
		 M1027.6,767.7l32.1,22.6c-0.2,5.3-0.3,21.2,4.6,35.6l-26.7,44.6C1033.2,860.9,1021.9,829.7,1027.6,767.7z M985.7,732.3
		c1.4-1.9,2.9-3.9,5.2-5.2c0.2-0.1,0.3-0.2,0.5-0.4c0.3,0.3,0.5,0.7,0.6,1.2c0.1,0.7-0.2,1.4-0.6,2.1c0,0-2.4,3.7-5.6,4.2
		C985.5,733.6,985.6,732.9,985.7,732.3z M978,741.5c0,0,2.2-3.7,5.6-4.2c0.6,3.2-2,6.7-2.1,6.7c-0.4,0.6-1.1,1.1-1.7,1.3
		c-0.6,0.2-1.2,0.1-1.6-0.2c-0.4-0.3-0.7-0.8-0.8-1.4C977.3,743,977.5,742.2,978,741.5z M995.6,918.3c-1.5,2.1-2.2,7-2.4,10.5
		c-0.7-3-1.5-5.7-1.1-8.1c0.5-3.6,1.7-6.1,1-12.7c-0.5-6.6-2.3-14.4-2.3-14.4c-0.7,6.6-5.6,6.6-8,13.2c-1.7,5.2-2.3,4.9-5.4,9.7
		c-1.9,3-2.7,5.8-2.9,8.3c-2.7-7.9-5.3-15.8-7.6-23.6c0.7-1.1,1.1-5,1.5-9.5c2.7-2.5,5.4-2.7,6.5-4.3c1.2-1.9,0.7-4.2,1.9-6.6
		c1.2-2.4,3.8-6.4,4.2-8.5c1.2-6.6,4.9-13.9,1.7-21c0,0-1.6,0.5-3.3,1.2c0.3-1.5,0.5-2.9,0.9-3.6c1-2.4,0.5-18.7-1.2-22.9
		c0,0-4.9,3.6-7.3,6.6c-2.4,3-6.6,4.2-7.8,7.8c-1.2,3.7-3.6,3.7-5.4,7.3c-1.3,2.5-2.5,6.2-2.7,9.8c-2.3-10.9-3.6-19.7-3.7-24.6
		c-0.1-2.7-0.1-5.7,0-9c0.4-1.2,0.7-2.4,1-3.7c0.5-0.6,1-0.9,1.6-0.9c2.4,0,5.4-1.7,7.3-3c1.7-1.2,2.4-2.4,7.3-4.3
		c4.7-1.7,4.7-5.9,9-13.7c4.2-8,2.4-22.9,2.4-22.9c-0.5,1.6-4.5,5.3-8.3,8.1c0.1-3.5-0.6-7.6-1-9.5c-0.5-3,0-7.3,0-7.3
		c-10.8,5.6-12,15.8-16.9,21.2c0,0,0,0,0,0.1c1.4-11.4,3.4-23.3,6.1-34.5c0,0,0,0,0,0c0.5-1.7,4.2-3.6,8.5-4.9
		c1.8-0.5,4.1-2.7,6.3-5.1c0,0,0,0,0,0.1c0.1,1.2,0.7,2.2,1.6,2.8c0.6,0.4,1.3,0.7,2.1,0.7c0.4,0,0.7,0,1.1-0.1
		c0.6-0.2,1.1-0.4,1.6-0.8l-1,6.2c0,0-0.9,2.6,4.2,3.7c-1.2,13-8.6,107.9,23.2,163.3l-2.2,3.7c-2.6-2.3-8.1-10-9.3-12.3
		C996.8,911,997.5,915.8,995.6,918.3z M1192.4,1078.2c-1.9-1.1-7.6-3.8-15.5-3.9c-10.7-12.8-6.5-24.9-5.4-27.5
		c7.5,8.5,18.6,26.7,21.2,30.9C1192.6,1077.9,1192.5,1078.1,1192.4,1078.2z M1224.8,1074.3c-8,0.1-13.6,2.8-15.6,3.9
		c-0.1-0.2-0.1-0.3-0.2-0.5c2.5-4.2,13.7-22.4,21.2-30.9C1231.3,1049.4,1235.5,1061.6,1224.8,1074.3z"/>
	<path class="st1" d="M1081.4,1022.8c-1.9,0-3.6,1.6-3.6,3.5c0,2.1,1.7,3.6,3.6,3.6c2.1,0,3.6-1.6,3.6-3.6
		C1085.1,1024.4,1083.5,1022.8,1081.4,1022.8z"/>
	<path class="st1" d="M1064.6,1051.6c0-1.9-1.6-3.6-3.6-3.6c-1.9,0-3.7,1.7-3.7,3.6c0,2.1,1.7,3.6,3.7,3.6
		C1063,1055.3,1064.6,1053.7,1064.6,1051.6z"/>
	<path class="st1" d="M1013.3,968.5c-2.1,0-3.6,1.6-3.6,3.6c0,1.9,1.6,3.6,3.6,3.6c1.9,0,3.6-1.7,3.6-3.6
		C1016.9,970,1015.2,968.5,1013.3,968.5z"/>
	<path class="st1" d="M983.8,990.5c2.1,0,4-1.7,4-4c0-2.1-1.9-4-4-4c-2.3,0-4,1.9-4,4C979.8,988.8,981.5,990.5,983.8,990.5z"/>
	<path class="st1" d="M978.4,893.3c-2.3,0-4,1.9-4,4c0,2.3,1.7,4,4,4c2.1,0,4-1.7,4-4C982.4,895.2,980.5,893.3,978.4,893.3z"/>
	<path class="st1" d="M957.5,904.6c0-2.3-1.7-4-4-4c-2.1,0-4,1.7-4,4c0,2.3,1.9,4,4,4C955.8,908.6,957.5,906.8,957.5,904.6z"/>
	<path class="st1" d="M966.2,821.1c-2.3,0-4,1.7-4,4c0,2.1,1.7,4,4,4c2.3,0,4-1.9,4-4C970.2,822.8,968.5,821.1,966.2,821.1z"/>
	<path class="st1" d="M944,755.9c2.1,0,4-1.7,4-3.8c0-2.3-1.9-4-4-4c-2.3,0-4,1.7-4,4C940,754.2,941.7,755.9,944,755.9z"/>
	<path class="st1" d="M972.3,755.2c-2.3,0-4,1.9-4,4c0,2.3,1.7,4,4,4c2.3,0,4-1.7,4-4C976.3,757.1,974.6,755.2,972.3,755.2z"/>
	<path class="st1" d="M996.1,698.3c0,2.3,1.7,4,4,4c2.1,0,4-1.7,4-4c0-2.1-1.9-3.8-4-3.8C997.8,694.5,996.1,696.2,996.1,698.3z"/>
	<path class="st1" d="M974.9,681.5c0,2.3,1.7,4,4,4s4-1.7,4-4c0-2.1-1.7-4-4-4C976.7,677.5,974.9,679.4,974.9,681.5z"/>
	<path class="st1" d="M938.9,825.7c0-2.1-1.7-3.8-4-3.8c-2.1,0-3.8,1.7-3.8,3.8c0,2.1,1.7,3.8,3.8,3.8
		C937.2,829.6,938.9,827.8,938.9,825.7z"/>
	<path class="st1" d="M1162.6,764.4l-9.7,4.3l0.5,1c1.7-0.3,2.3,0.2,3,1.7l1-0.4l-1-2.4l6.9-2.9L1162.6,764.4z"/>
	<path class="st1" d="M1156.9,762.4l-0.2-1c-0.9-0.3-1.4-1-1.6-1.7c-0.2-1.2,0.3-2.4,1.7-2.8c1.4-0.3,2.6,0.2,2.9,1.6
		c0.3,1.2,0,2.3-1.2,2.6l0.3,1.4c2.3-0.9,2.4-2.6,2.1-4c-0.9-3.3-3.5-3.3-4.5-2.9c-2.3,0.5-3,2.4-2.6,4.2c0.2,0.9,0.7,1.6,1.2,1.9
		l-2.9,0.2l-1-4.3l-1.4,0.2l1.2,5.4L1156.9,762.4z"/>
	<path class="st1" d="M1154.4,746.6l0.7-2.3c0.5-1.7,0.9-2.3,2.1-2.1c1.6,0.2,1.7,1.9,1.6,3c-0.2,1.4-0.9,3-2.8,2.8l-0.2,1.4
		c1,0.2,1.9,0,3-0.9c0.3-0.3,1-1.2,1.2-3.1c0.2-1.9-0.3-4.3-3-4.5c-1.6-0.2-2.6,0.7-2.9,2.1l-1,3.1c-0.2,0.5-0.5,1.2-1.6,1.2
		c-1.6-0.2-1.7-1.7-1.6-2.8c0-1.2,0.7-2.4,2.4-2.4v-1.4c-1.2,0-3.5,0.2-3.8,4c-0.2,2.6,1.4,3.8,3.1,4
		C1153.6,748.8,1154.1,747.3,1154.4,746.6z"/>
	<polygon class="st1" points="1163,732 1161.7,731.6 1159.7,737.9 1156.2,736.7 1158.1,731.1 1156.9,730.6 1155,736.3 1151.8,735.3 
		1153.9,729.2 1152.5,728.7 1150.1,736.3 1160.5,739.6 	"/>
	<path class="st1" d="M1164.5,729.6l-4-2.5l1.8-2.9c1.2-2.1,0.4-3.8-1-4.6c-0.7-0.4-1.5-0.6-2.3-0.4c-0.8,0.2-1.6,0.8-2.1,1.6
		l-2.4,4.1l9.1,5.8L1164.5,729.6z M1156.4,724.4l1.6-2.5c0.4-0.7,0.9-1.1,1.6-1c0.2,0,0.5,0.2,0.8,0.4c1,0.7,1.1,1.6,0.4,2.6
		l-1.4,2.3L1156.4,724.4z"/>
	<polygon class="st1" points="1163.8,714.3 1170.8,720.9 1171.6,719.8 1164.9,713.2 1167.5,710.4 1166.4,709.6 1160.4,716 
		1161.2,716.9 	"/>
	<polygon class="st1" points="1176.5,715.8 1169.9,707.1 1168.9,708 1175.3,716.7 	"/>
	<polygon class="st1" points="1185.4,710.6 1184.8,709.6 1178.9,712.5 1177.4,709.4 1182.6,706.6 1182.1,705.4 1176.7,708.2 
		1175.1,705.2 1180.9,702.3 1180.3,701.1 1173.2,704.7 1178.2,714.4 	"/>
	<path class="st1" d="M1188,709.9l-1.4-6.4c-0.2-0.2-0.5-1.6-0.7-2.6l5,8.3l1.4-0.3l1-9.6c0.3,1,0.5,2.3,0.5,2.6l1.4,6.2v0l1.4-0.2
		l-2.3-10.8l-2.1,0.5l-1,9.7l-5-8.3l-2.1,0.3l2.4,10.6L1188,709.9z"/>
	<path class="st1" d="M1203,708.1c2.4,0.2,3.9-1.1,3.9-2.9c0.2-1.9-1.2-2.4-1.9-2.7c1.2-0.5,1.5-1.6,1.5-2.3c0.2-1.6-0.8-2.8-2.9-3
		l-4.8-0.1l-0.5,10.9L1203,708.1z M1200.5,698.6l2.4,0.2c1.6,0,2.1,0.5,2.1,1.5c-0.2,1.2-0.9,1.6-2.2,1.4h-2.5L1200.5,698.6z
		 M1200.3,703.1l2.6,0.3c1,0,2.3,0.4,2.3,1.8c0,1-0.9,1.8-2.3,1.8l-2.8-0.3L1200.3,703.1z"/>
	<polygon class="st1" points="1198.9,697.1 1198.9,697.1 1198.9,697.1 	"/>
	<path class="st1" d="M1210.7,704.6l3.5,1c1.7,0.5,1.6,1.5,1.4,2.4c-0.2,0.3-0.7,1.9-0.5,2.6l1.8,0.5V711c-0.3-0.3-0.3-0.6-0.1-1.3
		l0.2-1.9c0.5-1.4,0-1.9-0.5-2.3c0.7-0.4,1.8-0.6,2.1-2.1c0.7-2.3-0.9-3.2-2.6-3.8l-4.9-1.6l-2.9,10.6l1.4,0.4L1210.7,704.6z
		 M1212.4,700l3.1,1.1c0.7,0.2,1.8,0.4,1.3,2c-0.4,1.4-1.3,1.3-2.4,1.1l-3-0.9L1212.4,700z"/>
	<polygon class="st1" points="1224.8,715.8 1225.3,714.8 1219.8,711.5 1221.5,708.4 1226.7,711.3 1227.4,710.3 1222.2,707.1 
		1223.9,704.4 1229.5,707.7 1230.2,706.4 1223.2,702.4 1217.9,711.8 	"/>
	<path class="st1" d="M1231.6,722.7c2.4,2.6,5.3,1.4,7.3-0.1c2.4-1.9,3-4.7,1.1-7l-2.9-3.3l-8.3,6.9L1231.6,722.7z M1238.6,716.7
		c1.2,1.4,1,2.9-0.9,4.6c-1.9,1.6-3.7,1.5-4.9,0.1l-1.6-1.9l5.8-4.9L1238.6,716.7z"/>
	<polygon class="st1" points="1238.9,734.6 1240.1,734.1 1237.1,728.1 1240.4,726.6 1243,732 1244.3,731.3 1241.5,726.1 
		1244.6,724.5 1247.4,730.2 1248.6,729.7 1245,722.6 1235.2,727.5 	"/>
	<path class="st1" d="M1248.1,741.5l-7.5,1l0.2,1.4l10.6-1.6l-0.2-1c-1.7-0.2-1.9-0.7-2.4-2.4l-1,0.2L1248.1,741.5z"/>
	<path class="st1" d="M1248.9,747.9c-1,0-1.8,0.5-2.1,1.5c-0.4-1.2-1.2-2-2.6-2.1c-0.5,0-1.5,0-2.5,1c-0.7,0.9-0.9,1.9-0.9,2.6
		c-0.2,2.4,1.6,3.6,3.1,3.6c0.9,0.2,2.1-0.1,2.8-1.5c0.2,0.5,0.7,1.4,2.1,1.4c1.4,0.2,2.9-0.7,2.9-3.1
		C1251.9,748.8,1250.2,747.9,1248.9,747.9z M1245.8,751.1c0,1-0.5,1.9-1.9,1.9c-1.6,0-1.8-1.3-1.8-2.1c0-1.6,1.1-1.9,2-1.9
		C1245.1,749,1246,749.7,1245.8,751.1z M1250.3,751.2c0,1.4-0.9,1.8-1.4,1.8c-0.9-0.2-1.6-1-1.6-2c0-0.9,0.8-1.5,1.6-1.5
		C1249.6,749.5,1250.5,749.8,1250.3,751.2z"/>
	<path class="st1" d="M1247.4,756.8l-0.2,1.4c0.7,0.2,2.4,0.7,1.9,2.6c-0.4,1.6-1.6,1.9-2.3,1.6c-1.4-0.2-1.7-1.2-2.1-2.4l-0.4-1.6
		c-0.5-1.6-1.4-2.8-3.6-3.5l-1.7,7.1l1.2,0.4l1.4-5.7c0.5,0.2,1.2,0.7,1.6,2.3l0.3,1.2c0.5,1.9,1,3.3,2.8,3.6c1.9,0.5,3.5-0.7,4-2.4
		C1250.5,760.3,1250.9,757.7,1247.4,756.8z"/>
	<path class="st1" d="M1245.3,766.9l-1,2.3l-6.8-3.3l-0.7,1.4l9.7,4.5l0.4-1c-1.4-1-1.2-1.7-0.5-3.5L1245.3,766.9z"/>
	<path class="st1" d="M1187.1,805.2l1.2,0.2l8-32.9c-0.4-0.1-0.8,0-1.2-0.1l-7.9,32.5L1187.1,805.2z"/>
	<path class="st1" d="M1186,791.1l1.1,0.4l6.7-19.5c-0.4-0.1-0.8-0.2-1.1-0.4l-6.6,19.2L1186,791.1z"/>
	<path class="st1" d="M1174.6,803.1l1.1,0.5l15.4-32.4c-0.4-0.1-0.7-0.3-1.1-0.5l-15.3,32.1L1174.6,803.1z"/>
	<path class="st1" d="M1172.2,797.7l16.7-27.6c-0.4-0.2-0.7-0.4-1-0.6l-16.7,27.5L1172.2,797.7z"/>
	<path class="st1" d="M1161.9,798.2l-0.2,0.2l0.9,0.7l23.8-30.4c-0.3-0.2-0.6-0.5-0.9-0.7L1161.9,798.2z"/>
	<path class="st1" d="M1163.4,790.7l21-23.4l0.1-0.1c-0.3-0.3-0.6-0.5-0.9-0.8l-21.1,23.4L1163.4,790.7z"/>
	<path class="st1" d="M1182.7,765.6c-0.3-0.3-0.5-0.6-0.8-0.9l-31.2,27.5l0.8,0.9l31-27.4L1182.7,765.6z"/>
	<path class="st1" d="M1180.9,763.5L1180.9,763.5c-0.2-0.3-0.5-0.6-0.8-0.9l-16.5,11.6l-0.2,0.2l0.7,1L1180.9,763.5z"/>
	<path class="st1" d="M1179.5,761.4c-0.2-0.3-0.4-0.7-0.6-1l-11.5,6.4l0.6,1L1179.5,761.4z"/>
	<path class="st1" d="M1178.4,759.3c-0.2-0.4-0.4-0.7-0.6-1l-12.1,5.3l0.5,1.1L1178.4,759.3z"/>
	<polygon class="st1" points="1177,755.8 1164.3,759.9 1164.7,761 1177,757.1 1177.3,757 	"/>
	<path class="st1" d="M1176.6,754.6c-0.1-0.4-0.2-0.8-0.3-1.1l-13,2.8l0.3,1.2L1176.6,754.6z"/>
	<path class="st1" d="M1176.1,750.9l-13.4,1.4l0.1,1.2l13.3-1.4C1176.1,751.7,1176.1,751.3,1176.1,750.9z"/>
	<path class="st1" d="M1162.5,749.6l13.4-0.1c0-0.2-0.1-0.4-0.1-0.6c0-0.2,0.1-0.4,0.1-0.6l-13.4,0.1L1162.5,749.6z"/>
	<path class="st1" d="M1162.7,746l13.1,1.1l0.2,0c0-0.4,0.1-0.8,0.1-1.2l-13-1.1l-0.3,0L1162.7,746z"/>
	<path class="st1" d="M1163.1,741.7l13.2,2.9c0.1-0.4,0.1-0.8,0.2-1.2l-13.2-2.9L1163.1,741.7z"/>
	<path class="st1" d="M1164.2,738.2l12.5,4.1l0.2,0.1c0.1-0.4,0.2-0.8,0.4-1.1l-12.7-4.2L1164.2,738.2z"/>
	<path class="st1" d="M1165.8,733.5l-0.5,1.1l12.4,5.3c0.1-0.4,0.3-0.7,0.5-1.1l-12.1-5.2L1165.8,733.5z"/>
	<path class="st1" d="M1167,731.1l11.8,6.4l0.1,0.1c0.2-0.3,0.4-0.7,0.6-1l-11.9-6.4L1167,731.1z"/>
	<path class="st1" d="M1180.7,734.5l-10.8-7.7l-0.7,1l10.7,7.6C1180.2,735.1,1180.5,734.8,1180.7,734.5z"/>
	<path class="st1" d="M1181.7,733.3c0.3-0.3,0.5-0.6,0.8-0.9l-9.7-8.4l-0.2-0.2l-0.8,0.9L1181.7,733.3L1181.7,733.3z"/>
	<path class="st1" d="M1175.3,721.1l-0.9,0.8l9,9.4c0.3-0.3,0.6-0.5,0.9-0.7l-8.9-9.3L1175.3,721.1z"/>
	<path class="st1" d="M1178.4,718.7l-0.9,0.7l8.2,10.2c0.3-0.2,0.6-0.5,0.9-0.7l-8-10L1178.4,718.7z"/>
	<path class="st1" d="M1182.1,716.5l-1,0.6l6.4,11.1l0.1,0.1c0.3-0.2,0.7-0.4,1-0.6l-6.4-11L1182.1,716.5z"/>
	<path class="st1" d="M1185.5,715l-1.1,0.5l5.4,11.6c0.4-0.2,0.7-0.4,1.1-0.5l-5.3-11.3L1185.5,715z"/>
	<path class="st1" d="M1189.2,713.7l-1.1,0.4l4.2,12.1c0.4-0.1,0.7-0.2,1.1-0.4l-4.1-11.8L1189.2,713.7z"/>
	<path class="st1" d="M1193.2,712.5l-1.2,0.2l2.6,12.7l0,0c0.4-0.1,0.8-0.1,1.2-0.2l-2.6-12.5L1193.2,712.5z"/>
	<path class="st1" d="M1196.1,712.1l1.3,13c0.4,0,0.8-0.1,1.2-0.1l-1.3-12.9L1196.1,712.1z"/>
	<path class="st1" d="M1200.8,711.9l-1.2,0l0.1,12.9c0.1,0,0.1,0,0.2,0c0.3,0,0.7,0.1,1,0.1l-0.1-12.7V711.9z"/>
	<path class="st1" d="M1202.1,724.9l0,0.2c0.4,0,0.8,0.1,1.2,0.1l1.2-13.1l-1.2-0.1L1202.1,724.9z"/>
	<path class="st1" d="M1207.3,712.5l-2.6,12.8c0.3,0.1,0.6,0.2,0.9,0.3l0.3,0l2.6-12.9L1207.3,712.5z"/>
	<path class="st1" d="M1212.2,714l-1.1-0.4l-4.1,12.1l-0.1,0.3c0.4,0.1,0.8,0.2,1.1,0.4l4.1-12L1212.2,714z"/>
	<path class="st1" d="M1215.8,715.5l-1.1-0.5l-5.2,11.6l-0.1,0.2c0.4,0.2,0.7,0.4,1,0.6l5.2-11.6L1215.8,715.5z"/>
	<polygon class="st1" points="1217.9,716.5 1211.7,727.5 1211.6,727.8 1212.6,728.4 1218.9,717.1 	"/>
	<path class="st1" d="M1221.5,718.6l-7.9,10.3l-0.1,0.1c0.3,0.2,0.6,0.5,0.9,0.8l7.9-10.2l0.2-0.2L1221.5,718.6z"/>
	<polygon class="st1" points="1225.3,721.8 1224.4,721 1215.6,730.7 1216.4,731.5 1225.1,722.1 	"/>
	
		<rect x="1216.1" y="727.9" transform="matrix(0.7448 -0.6673 0.6673 0.7448 -174.0888 1001.8132)" class="st1" width="13" height="1.2"/>
	<path class="st1" d="M1219.3,734.4l-0.2,0.1c0.2,0.3,0.5,0.6,0.7,0.9l10.2-7.6l0.2-0.2l-0.7-1L1219.3,734.4z"/>
	<path class="st1" d="M1220.6,736.3l-0.2,0.1c0.2,0.3,0.4,0.7,0.6,1l11.3-6.4l0.3-0.1l-0.6-1L1220.6,736.3z"/>
	<path class="st1" d="M1221.8,738.6l-0.2,0.1c0.2,0.4,0.4,0.7,0.5,1.1l11.7-5.2l0.3-0.1l-0.5-1.1L1221.8,738.6z"/>
	<path class="st1" d="M1222.6,741.1c0.1,0.4,0.2,0.8,0.4,1.1l12-4.1l0.3-0.1l-0.4-1.1L1222.6,741.1z"/>
	<path class="st1" d="M1223.2,743.3c0.1,0.4,0.2,0.8,0.3,1.1l12.7-2.9l-0.3-1.1L1223.2,743.3z"/>
	<path class="st1" d="M1223.6,745.8c0.1,0.4,0.1,0.8,0.1,1.2l12.5-1.1l0.3,0l-0.1-1.2L1223.6,745.8z"/>
	<path class="st1" d="M1224,748.9c0,0.1,0,0.3,0,0.4l12.9,0.1l0-1.2l-12.9-0.1C1223.9,748.3,1224,748.6,1224,748.9z"/>
	<path class="st1" d="M1223.5,753.2c-0.1,0.4-0.2,0.8-0.3,1.2l12.4,2.8l0.3-1.2L1223.5,753.2z"/>
	<path class="st1" d="M1236.5,753.3l0.1-1.2l-12.8-1.4c0,0.1,0,0.2,0,0.3c0,0.3-0.1,0.6-0.1,0.9l12.5,1.4L1236.5,753.3z"/>
	<path class="st1" d="M1234.7,760.8l0.4-1.1l-11.9-4l-0.3-0.1l0,0.1c-0.1,0.3-0.2,0.7-0.3,1l11.9,3.9L1234.7,760.8z"/>
	<path class="st1" d="M1222.1,758.1c-0.2,0.4-0.4,0.7-0.5,1.1l11.4,5.1l0.3,0.1l0.5-1.1L1222.1,758.1L1222.1,758.1z"/>
	<path class="st1" d="M1220.5,761.2l10.8,6.2l0.3,0.1l0.6-1l-11.1-6.4C1220.8,760.5,1220.7,760.9,1220.5,761.2z"/>
	<path class="st1" d="M1219.1,763.3l16.1,11.8l0.7-1l-16-11.7C1219.6,762.7,1219.3,762.9,1219.1,763.3z"/>
	<path class="st1" d="M1218.1,764.4c-0.3,0.3-0.5,0.6-0.8,0.9l29.7,27.1l0.2,0.2l0.8-0.9l-29.9-27.2L1218.1,764.4z"/>
	<path class="st1" d="M1215.6,767l20.3,23.3l0.9-0.8l-20.2-23.3l0,0c-0.2,0.2-0.4,0.4-0.7,0.6C1215.8,766.8,1215.7,766.9,1215.6,767
		z"/>
	<path class="st1" d="M1213.7,768.5l22.9,30.2l0.9-0.7l-22.9-30.3C1214.4,768,1214.1,768.3,1213.7,768.5z"/>
	<path class="st1" d="M1211.4,769.9l15.9,27.2l0.1,0.3l1-0.6l-16.1-27.4C1212.1,769.5,1211.7,769.7,1211.4,769.9z"/>
	<path class="st1" d="M1209.3,771L1224,803l0.1,0.3l1.1-0.5l-14.8-32.3C1210,770.6,1209.7,770.9,1209.3,771z"/>
	<path class="st1" d="M1206.7,771.8l6.3,19l0.1,0.3l1.1-0.4l-6.4-19.3C1207.5,771.6,1207.1,771.7,1206.7,771.8z"/>
	<path class="st1" d="M1204.3,772.5l7.6,32.6l1.2-0.3l-7.6-32.6C1205.1,772.3,1204.7,772.4,1204.3,772.5z"/>
	<path class="st1" d="M1089.7,989c0,0-3.7,4.3-1.6,7.9c0,0,3.7,4.7,9.2,0C1097.3,996.9,1088.4,997,1089.7,989z"/>
	<path class="st1" d="M1123.3,984.4l-1.9-1.1l-4.8,8.1l1.9,1.1c2.4,1.4,4.8,0.9,6.4-1.7C1126.4,988.2,1125.6,985.9,1123.3,984.4z"/>
	<path class="st1" d="M1138.9,992.6c-2.3-1.1-5-0.1-6.2,2.3c-1.2,2.5-0.2,5.3,2.1,6.4c2.3,1.1,5,0,6.2-2.5
		C1142.2,996.4,1141.2,993.7,1138.9,992.6z"/>
	<path class="st1" d="M1193.1,1006.6c-2.5-0.1-4.7,1.8-4.8,4.5c-0.1,2.8,1.8,5,4.3,5.1c2.5,0.1,4.7-1.9,4.8-4.6
		C1197.5,1008.9,1195.6,1006.8,1193.1,1006.6z"/>
	<path class="st1" d="M1237.2,1007.3l-2.7,0.7l1.1,4.1l2.7-0.7c1.3-0.3,1.8-1.4,1.5-2.6C1239.4,1007.6,1238.4,1006.9,1237.2,1007.3z
		"/>
	<path class="st1" d="M1237.9,1003.6c-0.3-1.1-1.1-1.6-2.3-1.3l-2.5,0.7l0.9,3.6l2.5-0.7C1237.7,1005.6,1238.2,1004.7,1237.9,1003.6
		z"/>
	<path class="st1" d="M1255,996.2c-0.4,0-0.8,0-1.7,0.4l-1.9,0.7l1.7,4.1l2.3-0.9c1.3-0.5,1.7-1.6,1.2-2.9
		C1256.3,996.7,1255.7,996.3,1255,996.2z"/>
	<path class="st1" d="M1271.7,994.4l3.3-1.8l-3.1-2.8c-0.5-0.5-1.3-1.3-1.3-1.3l0,0c0,0,0.3,1.1,0.4,1.8L1271.7,994.4z"/>
	<polygon class="st1" points="1265.7,996.9 1265.7,991 1263.4,992.1 	"/>
	<path class="st1" d="M1261.8,992.8l-3.8,1.8l-0.6-1.4l8.4-3.9v-6.5c-17.9,9.5-40.3,17.3-65.3,17.3c-27.4,0-51.7-9.4-70.2-20
		c0,0-18.8-10.6-35.6,4.5l-4.8,4.3c1.8-0.8,4.9-0.3,8.6,0.8l-3.9,1.5c5,2,2.9,5.7,2.9,5.7l6.1-5.4c12,4.7,26.7,13.4,26.7,13.4
		c18,10.9,42.8,17.8,70.2,17.8h0h0c25,0,47.8-5.8,65.3-15v-6.6L1261.8,992.8z M1117.8,993.9l-3.5-2.1l6.3-10.7l3.5,2.1
		c3.3,1.9,4.2,5.1,2.3,8.5C1124.4,995.1,1121.1,995.8,1117.8,993.9z M1126.6,998.8l-1.5-0.8l5.9-10.9l1.5,0.8L1126.6,998.8z
		 M1134.1,1002.8c-3.2-1.5-4.6-5.3-3-8.6c1.5-3.2,5.2-4.5,8.5-3c3.2,1.5,4.6,5.2,3.1,8.4C1141.1,1002.9,1137.3,1004.3,1134.1,1002.8
		z M1151.4,999.1c0,0-0.7-1.4-2.1-2c-1.2-0.5-2.4,0-2.7,0.9c-0.9,2.4,4.9,3.9,3.5,7.7c-0.7,1.8-2.6,2.7-4.9,1.8c-2.5-1-3.2-3-3.2-3
		l1.4-0.9c0,0,0.7,1.7,2.5,2.4c1.1,0.4,2.2,0.2,2.7-0.9c1-2.5-4.8-4.1-3.5-7.7c0.7-1.8,2.8-2.6,5-1.8c2.1,0.8,2.8,2.4,2.8,2.4
		L1151.4,999.1z M1161.6,1012.9c-2.8-0.8-4.2-3-3.5-5.7l2.1-7.7l1.7,0.5l-2.1,7.7c-0.5,1.8,0.4,3.2,2.2,3.7c1.8,0.5,3.3-0.2,3.8-2.1
		l2.1-7.7l1.7,0.4l-2.1,7.7C1166.8,1012.4,1164.4,1013.7,1161.6,1012.9z M1179.3,1016.4l-1.7-0.3l-4-8.9c-0.3-0.8-0.7-2-0.7-2l0,0
		c0,0-0.1,1.1-0.2,1.8l-1.4,7.9l-1.7-0.3l2.2-12.2l1.7,0.3l4,8.9c0.3,0.7,0.7,2,0.7,2l0,0c0,0,0.1-1.1,0.2-1.8l1.4-7.9l1.7,0.3
		L1179.3,1016.4z M1183.9,1016.9l-1.7-0.2l1.5-12.3l1.7,0.2L1183.9,1016.9z M1199.2,1011.7c-0.2,3.6-3.1,6.3-6.7,6.1
		c-3.6-0.2-6.2-3.2-6-6.8c0.2-3.6,3.1-6.2,6.7-6C1196.7,1005.2,1199.4,1008.1,1199.2,1011.7z M1209.5,1017.6l-5.8-7.8
		c-0.5-0.7-1.1-1.8-1.1-1.8l0,0c0,0,0.2,1.1,0.2,1.8l0.3,8l-1.7,0.1l-0.5-12.3l1.7-0.1l5.8,7.8c0.5,0.6,1.1,1.7,1.1,1.7h0
		c0,0-0.2-1.1-0.2-1.8l-0.3-8l1.7-0.1l0.5,12.4L1209.5,1017.6z M1221,1016.4l-2-12.2l1.7-0.3l1.7,10.7l5.5-0.9l0.2,1.5L1221,1016.4z
		 M1229.6,1014.9l-2.5-12.2l1.7-0.4l2.5,12.2L1229.6,1014.9z M1238.5,1012.8l-4.3,1.1l-3.2-12l4.2-1.1c2-0.5,3.8,0.2,4.3,2.1
		c0.3,1.2,0,2.3-0.8,3l0,0c1.4,0,2.4,1,2.7,2.4C1242.1,1010.7,1240.6,1012.3,1238.5,1012.8z M1244.8,1011.1l-3.9-11.8l6.8-2.3
		l0.5,1.4l-5.2,1.7l1.2,3.7l4.2-1.4l0.5,1.4l-4.2,1.4l1.3,3.8l5.5-1.8l0.5,1.4L1244.8,1011.1z M1256.1,1001.8l-2.5,1l1.8,4.6
		l-1.6,0.6l-4.6-11.5l3.5-1.4c1.2-0.5,1.7-0.6,2.3-0.6c1.3,0,2.6,0.8,3.2,2.3c0.6,1.5,0.3,3-0.8,3.9l0,0c0,0,0.2,0.1,0.5,0.4
		l4.2,3.5l-1.8,0.7L1256.1,1001.8z"/>
</g>
</svg>
