<?xml version="1.0" encoding="utf-8"?>
<!-- Generator: Adobe Illustrator 28.2.0, SVG Export Plug-In . SVG Version: 6.00 Build 0)  -->
<svg version="1.1" id="Layer_1" xmlns="http://www.w3.org/2000/svg" xmlns:xlink="http://www.w3.org/1999/xlink" x="0px" y="0px"
	 viewBox="0 0 800 800" style="enable-background:new 0 0 800 800;" xml:space="preserve">
<style type="text/css">
	.st0{fill:#FFFFFF;}
</style>
<path class="st0" d="M770.3,326.3l-350-300c-5.4-4.7-12.6-7.5-20.3-7.5s-14.9,2.9-20.4,7.5l0.1,0l-350,300
	c-6.7,5.8-10.9,14.2-10.9,23.7v0l0,0v400c0,17.3,14,31.2,31.3,31.2h700c17.2,0,31.2-14,31.2-31.2V350
	C781.2,340.6,777.1,332.1,770.3,326.3L770.3,326.3L770.3,326.3z M306.2,718.8V600c0-51.8,42-93.8,93.8-93.8s93.8,42,93.8,93.8l0,0
	v118.8H306.2z M718.8,718.8H556.2V600c0-86.3-70-156.2-156.2-156.2s-156.2,70-156.2,156.2l0,0v118.8H81.2V364.4L400,91.2
	l318.8,273.2V718.8z"/>
</svg>
