<?xml version="1.0" encoding="iso-8859-1"?>
<!-- Generator: Adobe Illustrator 28.2.0, SVG Export Plug-In . SVG Version: 6.00 Build 0)  -->
<svg version="1.1" id="Layer_1" xmlns="http://www.w3.org/2000/svg" xmlns:xlink="http://www.w3.org/1999/xlink" x="0px" y="0px"
	 viewBox="0 0 512 512" style="enable-background:new 0 0 512 512;" xml:space="preserve">
<g>
	<path style="fill:#24265D;" d="M256,0C114.839,0,0,114.839,0,256s114.839,256,256,256s256-114.839,256-256S397.161,0,256,0L256,0z
		 M256,482C131.385,482,30,380.615,30,256S131.385,30,256,30s226,101.385,226,226S380.615,482,256,482L256,482z M256,482"/>
	<path style="fill:#24265D;" d="M256,60C147.927,60,60,147.927,60,256s87.927,196,196,196s196-87.927,196-196S364.073,60,256,60
		L256,60z M256,422c-91.531,0-166-74.469-166-166S164.469,90,256,90s166,74.469,166,166S347.531,422,256,422L256,422z M256,422"/>
	<path style="fill:#24265D;" d="M362.771,170.437l-21.208-21.208L256,234.787l-85.208-85.203l-21.208,21.208L234.787,256
		l-21.213,21.213l21.213,21.213L256,277.213l21.213,21.213l21.213-21.213L277.213,256L362.771,170.437z M362.771,170.437"/>
	<rect x="241" y="120" style="fill:#24265D;" width="30" height="30"/>
	<rect x="241" y="362" style="fill:#24265D;" width="30" height="30"/>
	<rect x="120" y="241" style="fill:#24265D;" width="30" height="30"/>
	<rect x="362" y="241" style="fill:#24265D;" width="30" height="30"/>
</g>
</svg>
