<?xml version="1.0" encoding="iso-8859-1"?>
<!-- Generator: Adobe Illustrator 28.2.0, SVG Export Plug-In . SVG Version: 6.00 Build 0)  -->
<svg version="1.1" id="Capa_1" xmlns="http://www.w3.org/2000/svg" xmlns:xlink="http://www.w3.org/1999/xlink" x="0px" y="0px"
	 viewBox="-49 141 512 512" style="enable-background:new -49 141 512 512;" xml:space="preserve">
<path style="fill:#111E60;" d="M207.006,653c-5.245,0-10.228-2.303-13.629-6.302L42.999,470.064
	c-13.522-15.652-23.643-32.355-30.01-49.547c-23.804-62.956-14.823-134.212,24.072-190.496C76.148,173.451,138.095,141,207.006,141
	s130.858,32.451,169.945,89.021c38.895,56.284,47.876,127.541,24.025,190.61c-6.313,17.055-16.422,33.739-30.004,49.481
	L220.635,646.698C217.234,650.697,212.251,653,207.006,653z M207.006,176.804c-56.976,0-108.188,26.817-140.496,73.578
	C34.304,296.993,26.833,355.909,46.52,407.974c4.917,13.283,12.866,26.292,23.655,38.794l136.832,160.719l136.748-160.618
	c0.024-0.036,0.054-0.066,0.084-0.095c10.795-12.514,18.743-25.522,23.613-38.68c19.734-52.185,12.257-111.1-19.955-157.712
	C315.188,203.622,263.982,176.804,207.006,176.804z"/>
<path style="fill:#111E60;" d="M207.006,447.723c-55.282,0-100.252-44.97-100.252-100.252s44.976-100.252,100.252-100.252
	s100.252,44.976,100.252,100.252C307.258,402.753,262.288,447.723,207.006,447.723z M207.006,283.023
	c-35.536,0-64.448,28.912-64.448,64.448s28.912,64.448,64.448,64.448s64.448-28.912,64.448-64.448S242.542,283.023,207.006,283.023z
	"/>
</svg>
