<?xml version="1.0" encoding="iso-8859-1"?>
<!-- Generator: Adobe Illustrator 28.2.0, SVG Export Plug-In . SVG Version: 6.00 Build 0)  -->
<svg version="1.1" id="Layer_1" xmlns="http://www.w3.org/2000/svg" xmlns:xlink="http://www.w3.org/1999/xlink" x="0px" y="0px"
	 viewBox="0 0 384 315" style="enable-background:new 0 0 384 315;" xml:space="preserve">
<g>
	<path style="fill:#24265D;" d="M305.25,0H78.75C35.328,0,0,35.328,0,78.75v33.75c0,6.215,5.035,11.25,11.25,11.25h67.262
		l-35.086,85.371c-13.071,31.801-11.981,67.789,2.992,98.746c0.109,0.121,2.664,7.133,10.508,7.133h270
		c4.258,0,8.152-2.406,10.058-6.215c15.766-31.504,17.039-68.219,3.493-100.734l-35.114-84.301h67.387
		c6.215,0,11.25-5.035,11.25-11.25V78.75C384,35.328,348.672,0,305.25,0L305.25,0z M319.711,292.5H64.191
		c-9.777-23.883-9.82-50.82,0.047-74.828l36.844-89.645c1.492-3.632,0.555-1.05,0.844-60.527h33.824v33.75
		c0,6.215,5.035,11.25,11.25,11.25h89.926c6.211,0,11.25-5.035,11.25-11.25V67.5h33.75c0.293,59.414-0.664,56.906,0.863,60.574
		l36.918,88.629C329.855,241.062,329.789,268.32,319.711,292.5L319.711,292.5z M225.676,67.5V90H158.25V67.5H225.676z M361.5,101.25
		c-44.996,0.016-55.512-0.07-57.074,0.039V56.25c0-6.215-5.039-11.25-11.25-11.25h-202.5c-6.215,0-11.25,5.035-11.25,11.25v45.035
		c-0.895-0.055-31.149-0.027-56.926-0.035v-22.5c0-31.016,25.234-56.25,56.25-56.25h226.5c31.016,0,56.25,25.234,56.25,56.25V101.25
		z M361.5,101.25"/>
	<path style="fill:#24265D;" d="M158.211,146.25c0,6.215-5.035,11.25-11.25,11.25c-6.211,0-11.25-5.035-11.25-11.25
		c0-6.215,5.039-11.25,11.25-11.25C153.176,135,158.211,140.035,158.211,146.25L158.211,146.25z M158.211,146.25"/>
	<path style="fill:#24265D;" d="M203.211,146.25c0,6.215-5.035,11.25-11.25,11.25c-6.211,0-11.25-5.035-11.25-11.25
		c0-6.215,5.039-11.25,11.25-11.25C198.176,135,203.211,140.035,203.211,146.25L203.211,146.25z M203.211,146.25"/>
	<path style="fill:#24265D;" d="M248.211,146.25c0,6.215-5.035,11.25-11.25,11.25c-6.211,0-11.25-5.035-11.25-11.25
		c0-6.215,5.039-11.25,11.25-11.25C243.176,135,248.211,140.035,248.211,146.25L248.211,146.25z M248.211,146.25"/>
	<path style="fill:#24265D;" d="M158.211,191.25c0,6.215-5.035,11.25-11.25,11.25c-6.211,0-11.25-5.035-11.25-11.25
		S140.75,180,146.961,180C153.176,180,158.211,185.035,158.211,191.25L158.211,191.25z M158.211,191.25"/>
	<path style="fill:#24265D;" d="M203.211,191.25c0,6.215-5.035,11.25-11.25,11.25c-6.211,0-11.25-5.035-11.25-11.25
		S185.75,180,191.961,180C198.176,180,203.211,185.035,203.211,191.25L203.211,191.25z M203.211,191.25"/>
	<path style="fill:#24265D;" d="M248.211,191.25c0,6.215-5.035,11.25-11.25,11.25c-6.211,0-11.25-5.035-11.25-11.25
		S230.75,180,236.961,180C243.176,180,248.211,185.035,248.211,191.25L248.211,191.25z M248.211,191.25"/>
	<path style="fill:#24265D;" d="M158.211,236.25c0,6.215-5.035,11.25-11.25,11.25c-6.211,0-11.25-5.035-11.25-11.25
		S140.75,225,146.961,225C153.176,225,158.211,230.035,158.211,236.25L158.211,236.25z M158.211,236.25"/>
	<path style="fill:#24265D;" d="M203.211,236.25c0,6.215-5.035,11.25-11.25,11.25c-6.211,0-11.25-5.035-11.25-11.25
		S185.75,225,191.961,225C198.176,225,203.211,230.035,203.211,236.25L203.211,236.25z M203.211,236.25"/>
	<path style="fill:#24265D;" d="M248.211,236.25c0,6.215-5.035,11.25-11.25,11.25c-6.211,0-11.25-5.035-11.25-11.25
		S230.75,225,236.961,225C243.176,225,248.211,230.035,248.211,236.25L248.211,236.25z M248.211,236.25"/>
</g>
</svg>
