<?xml version="1.0" encoding="iso-8859-1"?>
<!-- Generator: Adobe Illustrator 28.2.0, SVG Export Plug-In . SVG Version: 6.00 Build 0)  -->
<svg version="1.1" id="Layer_1" xmlns="http://www.w3.org/2000/svg" xmlns:xlink="http://www.w3.org/1999/xlink" x="0px" y="0px"
	 viewBox="0 0 636.899 640.513" style="enable-background:new 0 0 636.899 640.513;" xml:space="preserve">
<g>
	<path style="fill:#111E60;" d="M409.978,13.131C228.279-40.358,41.035,74.905,7.226,261.87
		c-13.169,72.827-1.431,142.33,33.94,207.564c2.366,4.364,3.068,8.172,1.687,13.137c-13.789,49.583-27.305,99.242-40.864,148.89
		c-0.813,2.976-1.333,6.033-1.989,9.052c0.445,0,0.889,0,1.334,0c14.877-4.151,29.711-8.469,44.641-12.421
		c38.822-10.278,77.666-20.473,116.571-30.428c3.055-0.782,7.146-0.398,9.927,1.043c181.283,93.9,401.516-3.679,453.996-201.282
		C670.054,233.314,573.059,61.139,409.978,13.131z M371.532,575.74c-66.701,13.659-129.822,2.145-188.403-32.756
		c-5.429-3.234-10.158-3.888-16.151-2.26c-29.113,7.909-58.325,15.454-87.505,23.118c-0.823,0.216-1.676,0.323-3.619,0.688
		c8.26-30.233,16.103-59.558,24.393-88.757c1.653-5.822,1.106-10.231-2.203-15.377c-30.859-47.997-45.239-100.704-41.726-157.584
		c4.75-76.913,37.216-140.519,96.682-189.506c52.049-42.877,112.556-62.157,179.848-59.318
		c121.688,5.134,225.69,97.298,246.188,217.698C603.177,413.483,512.622,546.848,371.532,575.74z"/>
	<path style="fill:#111E60;" d="M475.041,389.646c-22.17-11.171-44.635-21.765-67.126-32.286c-6.458-3.021-11.69-1.183-16.17,4.789
		c-7.724,10.294-16.112,20.089-24.187,30.121c-4.215,5.237-9.295,6.162-15.442,3.717c-47.331-18.826-83.606-50.431-109.492-94.197
		c-3.461-5.852-2.782-10.539,1.436-15.725c6.717-8.259,12.915-16.942,19.274-25.489c3.957-5.318,4.025-10.817,1.408-16.922
		c-7.775-18.14-15.591-36.279-22.663-54.698c-4.831-12.584-11.383-21.33-25.463-17.687c-11.723-1.348-21.417,0.365-29.429,8.219
		c-25.291,24.793-33.785,54.549-26.123,88.9c5.375,24.1,18.153,44.561,32.297,64.391c44.991,63.078,101.161,110.979,177.356,132.214
		c21.055,5.868,42.245,7.968,62.698-0.6c36.146-15.14,46.037-31.381,46.607-65.019C480.079,396.07,477.731,391.002,475.041,389.646z
		"/>
</g>
</svg>
